<svg version="1.1" xmlns="http://www.w3.org/2000/svg" xmlns:xlink="http://www.w3.org/1999/xlink" width="89.78979" height="89.78979" viewBox="0,0,89.78979,89.78979"><g transform="translate(-275.10511,-135.10511)"><g fill="#47495f" fill-rule="evenodd" stroke="none" stroke-miterlimit="10"><g><path d="M319.00711,151.86413c0.62995,-0.29172 1.35583,-0.29172 1.98577,0l23.62889,10.94391c0.83552,0.38685 1.37,1.2236 1.37,2.14409v27.35994c0,0.84308 -0.44942,1.62236 -1.17908,2.04484l-23.62889,13.67971c-0.73202,0.4239 -1.63559,0.4239 -2.36761,0l-23.62899,-13.67971c-0.72971,-0.42248 -1.17899,-1.20177 -1.17899,-2.04484v-27.35994c0,-0.92049 0.53458,-1.75723 1.36986,-2.14409zM298.734,168.78138l18.90311,9.48473v23.62747l-18.90311,-10.94396zM322.36289,201.89359l18.90311,-10.94396v-22.16825l-18.90311,9.48473zM320,174.16461l18.19047,-9.12732l-18.19047,-8.42502l-18.19037,8.42502z"/><path d="M275.10511,137.46799c0,-1.30498 1.05791,-2.36289 2.36289,-2.36289h14.17734c1.30498,0 2.36289,1.05791 2.36289,2.36289c0,1.30498 -1.05791,2.36289 -2.36289,2.36289h-11.81445v11.81445c0,1.30498 -1.05791,2.36289 -2.36289,2.36289c-1.30498,0 -2.36289,-1.05791 -2.36289,-2.36289z"/><path d="M362.53201,135.10511c1.30479,0 2.36289,1.05791 2.36289,2.36289v14.17734c0,1.30498 -1.0581,2.36289 -2.36289,2.36289c-1.30479,0 -2.36289,-1.05791 -2.36289,-2.36289v-11.81445h-11.81445c-1.30479,0 -2.36289,-1.05791 -2.36289,-2.36289c0,-1.30498 1.0581,-2.36289 2.36289,-2.36289z"/><path d="M277.46799,224.89489c-1.30498,0 -2.36289,-1.0581 -2.36289,-2.36289v-14.17734c0,-1.30479 1.05791,-2.36289 2.36289,-2.36289c1.30498,0 2.36289,1.0581 2.36289,2.36289v11.81445h11.81445c1.30498,0 2.36289,1.0581 2.36289,2.36289c0,1.30479 -1.05791,2.36289 -2.36289,2.36289z"/><path d="M364.89489,222.53201c0,1.30479 -1.0581,2.36289 -2.36289,2.36289h-14.17734c-1.30479,0 -2.36289,-1.0581 -2.36289,-2.36289c0,-1.30479 1.0581,-2.36289 2.36289,-2.36289h11.81445v-11.81445c0,-1.30479 1.0581,-2.36289 2.36289,-2.36289c1.30479,0 2.36289,1.0581 2.36289,2.36289z"/></g></g></g></svg>