<svg version="1.1" xmlns="http://www.w3.org/2000/svg" xmlns:xlink="http://www.w3.org/1999/xlink" width="106.9737" height="106.9737" viewBox="0,0,106.9737,106.9737"><defs><radialGradient cx="320.00003" cy="173.50005" r="53.48685" gradientUnits="userSpaceOnUse" id="color-1"><stop offset="0" stop-color="#cdcdcd"/><stop offset="1" stop-color="#ffffff"/></radialGradient></defs><g transform="translate(-266.51318,-120.0132)"><g stroke="none" stroke-miterlimit="10"><path d="M266.51318,173.50005c0,-29.53997 23.94688,-53.48685 53.48685,-53.48685c29.53997,0 53.48685,23.94688 53.48685,53.48685c0,29.53997 -23.94688,53.48685 -53.48685,53.48685c-29.53997,0 -53.48685,-23.94688 -53.48685,-53.48685z" fill="url(#color-1)" fill-rule="nonzero"/><path d="M319.00712,145.3642c0.62995,-0.29172 1.35583,-0.29172 1.98577,0l23.62889,10.94391c0.83552,0.38685 1.37,1.2236 1.37,2.14409v27.35994c0,0.84308 -0.44942,1.62236 -1.17908,2.04484l-23.62889,13.67971c-0.73202,0.4239 -1.63559,0.4239 -2.36761,0l-23.62899,-13.67971c-0.72971,-0.42248 -1.17899,-1.20177 -1.17899,-2.04484v-27.35994c0,-0.92049 0.53458,-1.75723 1.36986,-2.14409zM298.734,162.28146l18.90311,9.48473v23.62747l-18.90311,-10.94396zM322.36289,195.39366l18.90311,-10.94396v-22.16825l-18.90311,9.48473zM320.00001,167.6647l18.19047,-9.12732l-18.19047,-8.42502l-18.19037,8.42502z" fill="#080808" fill-rule="evenodd"/></g></g></svg>