<svg version="1.1" xmlns="http://www.w3.org/2000/svg" xmlns:xlink="http://www.w3.org/1999/xlink" width="39.83248" height="20.64726" viewBox="0,0,39.83248,20.64726"><g transform="translate(-300.08376,-169.67637)"><g stroke-miterlimit="10"><path d="M310.50721,189.46013v-18.98314h18.09488c0.32561,-0.03347 0.65606,-0.05062 0.99052,-0.05062c5.28737,0 9.57363,4.28626 9.57363,9.57363c0,5.28737 -4.28626,9.57363 -9.57363,9.57363c-0.5029,0 -0.99674,-0.03878 -1.4787,-0.1135z" fill="#ff0000" stroke="#000000" stroke-width="1.5" stroke-linecap="butt"/><path d="M300.83376,180c0,-5.28737 4.28626,-9.57363 9.57363,-9.57363c5.28737,0 9.57363,4.28626 9.57363,9.57363c0,5.28737 -4.28626,9.57363 -9.57363,9.57363c-5.28737,0 -9.57363,-4.28626 -9.57363,-9.57363z" fill="#e8e8e8" stroke="#000000" stroke-width="1.5" stroke-linecap="butt"/><g fill="#000000" stroke="none" stroke-width="1" stroke-linecap="round"><path d="M310.2935,183.28274c-1.78575,0 -3.23863,-1.45274 -3.23863,-3.23863c0,-1.78575 1.45288,-3.23863 3.23863,-3.23863c1.78589,0 3.23863,1.45288 3.23863,3.23863c0,1.78589 -1.45274,3.23863 -3.23863,3.23863z"/><path d="M309.39964,176.18732c-0.04112,0 -0.08068,-0.01788 -0.10772,-0.05013c-0.03365,-0.03999 -0.04238,-0.09533 -0.02267,-0.14377l0.89386,-2.19804c0.02154,-0.05294 0.07308,-0.08772 0.13039,-0.08772c0.05731,0 0.10885,0.03478 0.13039,0.08772l0.894,2.19804c0.01971,0.04844 0.01084,0.10378 -0.02281,0.14377c-0.03351,0.03999 -0.08674,0.0583 -0.13771,0.04689c-0.56958,-0.12405 -1.15858,-0.12405 -1.72788,0c-0.00986,0.00225 -0.01985,0.00324 -0.02985,0.00324z"/><path d="M310.2935,186.38056c-0.05731,0 -0.10885,-0.03464 -0.13039,-0.08772l-0.89386,-2.19804c-0.01971,-0.04844 -0.01098,-0.10378 0.02267,-0.14377c0.03365,-0.03999 0.0866,-0.05801 0.13771,-0.04689c0.56929,0.12419 1.1583,0.12419 1.72788,0c0.05111,-0.01126 0.1042,0.00704 0.13771,0.04689c0.03365,0.03985 0.04252,0.09533 0.02281,0.14377l-0.894,2.19804c-0.02168,0.05309 -0.07322,0.08772 -0.13053,0.08772z"/><path d="M306.2959,181.07892c-0.01788,0 -0.03591,-0.00338 -0.05309,-0.01028l-2.19804,-0.894c-0.05294,-0.02168 -0.08772,-0.07322 -0.08772,-0.13053c0,-0.05731 0.03478,-0.10885 0.08787,-0.13039l2.19804,-0.89386c0.0483,-0.01971 0.10378,-0.01098 0.14377,0.02267c0.03999,0.03365 0.05801,0.08674 0.04689,0.13771c-0.0621,0.28458 -0.09364,0.57535 -0.09364,0.86387c0,0.28852 0.03154,0.57915 0.09364,0.86401c0.01112,0.05097 -0.0069,0.10406 -0.04689,0.13771c-0.02591,0.02183 -0.05815,0.03309 -0.09082,0.03309z"/><path d="M314.29109,181.07892c-0.03253,0 -0.06491,-0.01126 -0.09068,-0.03309c-0.03999,-0.03351 -0.05801,-0.0866 -0.04689,-0.13771c0.06196,-0.28472 0.0935,-0.57549 0.0935,-0.86401c0,-0.28852 -0.03154,-0.57929 -0.0935,-0.86387c-0.01112,-0.05097 0.0069,-0.10406 0.04689,-0.13771c0.03985,-0.03365 0.09519,-0.04238 0.14377,-0.02267l2.19804,0.89386c0.05309,0.02154 0.08772,0.07308 0.08772,0.13039c0,0.05731 -0.03464,0.10885 -0.08772,0.13039l-2.19804,0.894c-0.01718,0.0069 -0.0352,0.01042 -0.05309,0.01042z"/><path d="M306.83478,177.99039c-0.00394,0 -0.00803,-0.00014 -0.01197,-0.00056c-0.0521,-0.00451 -0.09744,-0.03746 -0.11772,-0.08547l-0.92216,-2.18636c-0.02225,-0.0528 -0.01028,-0.11377 0.03013,-0.15433c0.04055,-0.04055 0.10166,-0.05224 0.15433,-0.03013l2.18636,0.92216c0.04816,0.02028 0.08111,0.06562 0.08547,0.11758c0.00451,0.0521 -0.02028,0.10237 -0.06421,0.13053c-0.24543,0.15757 -0.47312,0.34076 -0.67716,0.54465c-0.20389,0.20403 -0.38723,0.43172 -0.54465,0.67716c-0.02605,0.04055 -0.07083,0.06477 -0.11842,0.06477z"/><path d="M314.67438,184.5658c-0.01845,0 -0.03703,-0.00352 -0.05478,-0.01098l-2.18622,-0.92216c-0.04816,-0.02042 -0.08111,-0.06576 -0.08547,-0.11772c-0.00451,-0.0521 0.02028,-0.10237 0.06421,-0.13067c0.24571,-0.15785 0.47354,-0.34118 0.67701,-0.54465v0c0.20347,-0.20333 0.38681,-0.4313 0.54465,-0.67701c0.0283,-0.04393 0.07787,-0.06886 0.13067,-0.06421c0.05196,0.00437 0.0973,0.03746 0.11772,0.08547l0.92216,2.18622c0.02211,0.0528 0.01028,0.11392 -0.03027,0.15433c-0.02704,0.02718 -0.06308,0.0414 -0.09969,0.0414z"/><path d="M313.75221,177.99025c-0.04773,0 -0.09237,-0.02408 -0.11856,-0.06463c-0.15785,-0.24585 -0.34118,-0.47354 -0.54465,-0.67716v0c-0.20375,-0.20375 -0.43158,-0.38709 -0.67701,-0.54465c-0.04407,-0.02816 -0.06872,-0.07843 -0.06421,-0.13053c0.00437,-0.0521 0.03746,-0.0973 0.08547,-0.11758l2.18622,-0.92216c0.05252,-0.02225 0.11377,-0.01042 0.15433,0.03013c0.04055,0.04055 0.05238,0.10152 0.03027,0.15433l-0.92216,2.18636c-0.02042,0.04816 -0.06576,0.08111 -0.11772,0.08547c-0.00394,0.00028 -0.00789,0.00042 -0.01197,0.00042z"/><path d="M305.91248,184.5658c-0.03661,0 -0.07266,-0.01436 -0.09955,-0.04126c-0.04055,-0.04055 -0.05252,-0.10152 -0.03013,-0.15433l0.92216,-2.18622c0.02028,-0.04816 0.06562,-0.08111 0.11758,-0.08547c0.0521,-0.00605 0.10237,0.02028 0.13053,0.06421c0.15757,0.24529 0.3409,0.47312 0.54465,0.67701v0c0.20361,0.20361 0.4313,0.38681 0.67716,0.54465c0.04393,0.0283 0.06872,0.07857 0.06421,0.13067c-0.00451,0.05196 -0.03746,0.0973 -0.08547,0.11772l-2.18636,0.92216c-0.01774,0.00732 -0.03619,0.01084 -0.05478,0.01084z"/></g></g></g></svg>