<svg version="1.1" xmlns="http://www.w3.org/2000/svg" xmlns:xlink="http://www.w3.org/1999/xlink" width="106.9737" height="106.9737" viewBox="0,0,106.9737,106.9737"><defs><radialGradient cx="320" cy="180" r="53.48685" gradientUnits="userSpaceOnUse" id="color-1"><stop offset="0" stop-color="#737373"/><stop offset="1" stop-color="#525252"/></radialGradient></defs><g transform="translate(-266.51315,-126.51315)"><g stroke="none" stroke-miterlimit="10"><path d="M266.51315,180c0,-29.53997 23.94688,-53.48685 53.48685,-53.48685c29.53997,0 53.48685,23.94688 53.48685,53.48685c0,29.53997 -23.94688,53.48685 -53.48685,53.48685c-29.53997,0 -53.48685,-23.94688 -53.48685,-53.48685z" fill="url(#color-1)"/><path d="M300.28657,177.45424c5.64619,-5.64619 11.29137,-11.29288 16.93632,-16.9398c1.52218,-1.52218 4.05583,-1.46764 5.56338,0.03992c5.64594,5.64594 11.2936,11.29213 16.94054,16.93707c3.58306,3.58306 -2.0118,9.11496 -5.60429,5.52447c-3.40061,-3.40061 -6.8022,-6.80022 -10.20181,-10.19983c-0.00074,7.98695 -0.00075,15.9712 -0.00174,23.95793c-0.001,5.08317 -7.86821,5.11095 -7.86821,0.04164c0.00124,-7.99986 0.00123,-16.00245 0.00198,-24.00231c-3.41547,3.41547 -6.82898,6.82898 -10.24346,10.24545c-3.58332,3.58332 -9.11496,-2.0118 -5.52272,-5.60453z" fill="#ffffff"/></g></g></svg>