<svg version="1.1" xmlns="http://www.w3.org/2000/svg" xmlns:xlink="http://www.w3.org/1999/xlink" width="106.9737" height="106.9737" viewBox="0,0,106.9737,106.9737"><defs><radialGradient cx="320" cy="180" r="53.48685" gradientUnits="userSpaceOnUse" id="color-1"><stop offset="0" stop-color="#cdcdcd"/><stop offset="1" stop-color="#ffffff"/></radialGradient></defs><g transform="translate(-266.51315,-126.51315)"><g stroke="none" stroke-miterlimit="10"><path d="M266.51315,180c0,-29.53997 23.94688,-53.48685 53.48685,-53.48685c29.53997,0 53.48685,23.94688 53.48685,53.48685c0,29.53997 -23.94688,53.48685 -53.48685,53.48685c-29.53997,0 -53.48685,-23.94688 -53.48685,-53.48685z" fill="url(#color-1)"/><path d="M300.40505,177.46954c5.61225,-5.61225 11.22351,-11.225 16.83453,-16.83799c1.51303,-1.51303 4.03145,-1.45882 5.52995,0.03968c5.61201,5.61201 11.22573,11.22425 16.83872,16.83527c3.56153,3.56153 -1.99971,9.06018 -5.5706,5.49126c-3.38017,-3.38017 -6.76132,-6.75935 -10.1405,-10.13852c-0.00074,7.93896 -0.00074,15.87521 -0.00173,23.81393c-0.00099,5.05262 -7.82092,5.08023 -7.82092,0.0414c0.00124,-7.95178 0.00123,-15.90627 0.00197,-23.85804c-3.39495,3.39495 -6.78793,6.78793 -10.18189,10.18387c-3.56178,3.56178 -9.06018,-1.99971 -5.48953,-5.57084z" fill="#080808"/></g></g></svg>