<svg version="1.1" xmlns="http://www.w3.org/2000/svg" xmlns:xlink="http://www.w3.org/1999/xlink" width="39.83248" height="20.64726" viewBox="0,0,39.83248,20.64726"><g transform="translate(-300.08376,-169.67637)"><g stroke-miterlimit="10"><path d="M329.49036,170.47699v18.98314h-17.60427c-0.48196,0.07472 -0.9758,0.1135 -1.4787,0.1135c-5.28737,0 -9.57363,-4.28626 -9.57363,-9.57363c0,-5.28737 4.28626,-9.57363 9.57363,-9.57363c0.33446,0 0.66491,0.01715 0.99052,0.05062z" fill="#e80000" stroke="#000000" stroke-width="1.5"/><path d="M320.01898,180c0,-5.28737 4.28626,-9.57363 9.57363,-9.57363c5.28737,0 9.57363,4.28626 9.57363,9.57363c0,5.28737 -4.28626,9.57363 -9.57363,9.57363c-5.28737,0 -9.57363,-4.28626 -9.57363,-9.57363z" fill="#e8e8e8" stroke="#000000" stroke-width="1.5"/><path d="M329.65232,175.00162c0.13328,0.03015 0.20785,0.14756 0.17295,0.2729c-0.02539,0.0952 -0.0714,0.12852 -0.25387,0.18564c-1.03767,0.32051 -1.87067,1.02181 -2.3546,1.98332c-0.06981,0.13804 -0.19198,0.43951 -0.23959,0.58706c-0.18564,0.58548 -0.2142,1.32803 -0.07616,1.96745c0.09361,0.43633 0.29829,0.91709 0.55533,1.30106c0.54263,0.81554 1.38674,1.40578 2.32287,1.62474c0.33161,0.07775 0.50614,0.09679 0.89646,0.09679c0.40936,-0.00159 0.57913,-0.02063 0.94406,-0.11265c1.02181,-0.25387 1.90875,-0.94089 2.43234,-1.88177c0.03332,-0.05871 0.07775,-0.12693 0.09996,-0.1539c0.08409,-0.09996 0.27766,-0.08409 0.3443,0.02856c0.05236,0.08885 0.04919,0.15391 -0.01904,0.41412c-0.2142,0.82665 -0.5823,1.51843 -1.14557,2.14992c-0.95041,1.06782 -2.33873,1.68979 -3.77307,1.68979c-0.51566,0 -0.89487,-0.05553 -1.44544,-0.20944c-0.6061,-0.16977 -1.21538,-0.48393 -1.72152,-0.89011c-1.05354,-0.84569 -1.70565,-2.00395 -1.88971,-3.35895c-0.03808,-0.27767 -0.03808,-0.97579 0,-1.25346c0.07775,-0.56961 0.2618,-1.17571 0.50456,-1.65806c0.5585,-1.10907 1.50891,-1.98015 2.66241,-2.44028c0.4522,-0.18088 0.95199,-0.2967 1.50732,-0.34906c0.12852,-0.01269 0.40936,-0.00952 0.476,0.00635z" fill="#000000" stroke="none" stroke-width="1"/></g></g></svg>