<svg version="1.1" xmlns="http://www.w3.org/2000/svg" xmlns:xlink="http://www.w3.org/1999/xlink" width="106.9737" height="106.9737" viewBox="0,0,106.9737,106.9737"><defs><radialGradient cx="320" cy="180" r="53.48685" gradientUnits="userSpaceOnUse" id="color-1"><stop offset="0" stop-color="#737373"/><stop offset="1" stop-color="#525252"/></radialGradient></defs><g transform="translate(-266.51315,-126.51315)"><g stroke="none" stroke-miterlimit="10"><path d="M266.51315,180c0,-29.53997 23.94688,-53.48685 53.48685,-53.48685c29.53997,0 53.48685,23.94688 53.48685,53.48685c0,29.53997 -23.94688,53.48685 -53.48685,53.48685c-29.53997,0 -53.48685,-23.94688 -53.48685,-53.48685z" fill="url(#color-1)"/><g fill="#ffffff"><path d="M311.40348,155.16707c-3.90478,0 -7.81041,0 -11.71519,0c4.58485,4.58485 9.16998,9.16885 13.75596,13.75483c2.91784,2.91783 -1.58303,7.45173 -4.49347,4.5413c-4.59339,-4.59253 -9.1882,-9.18706 -13.78159,-13.78045c0,3.92157 0,7.84229 0.00114,11.76415c0,4.11429 -6.38821,4.07814 -6.38935,-0.04583c0,-6.48301 -0.00085,-12.96715 -0.00199,-19.45016c0,-1.74785 1.48596,-3.17119 3.21702,-3.17119c6.48301,0 12.9683,0 19.45244,0c4.11458,0 4.07843,6.38935 -0.04498,6.38736z"/><path d="M351.21787,188.5978c0,6.48329 0.00085,12.9663 0.00199,19.44931c0,1.74785 -1.48596,3.17005 -3.21702,3.17119c-6.48301,0 -12.9683,0.00086 -19.45244,0.00199c-4.1143,0 -4.07814,-6.38822 0.04583,-6.38935c3.90478,0 7.80927,-0.00114 11.71519,-0.00114c-4.58598,-4.58598 -9.16998,-9.16998 -13.75597,-13.75597c-2.91784,-2.91897 1.58303,-7.45173 4.49347,-4.54129c4.59368,4.59367 9.1882,9.1882 13.78159,13.78159c0,-3.92186 0,-7.84144 -0.00114,-11.7633c0,-4.11429 6.3885,-4.07814 6.3885,0.04697z"/><path d="M328.59851,148.78256c6.48329,0 12.9663,-0.00086 19.44931,-0.002c1.74786,0 3.17119,1.48596 3.17119,3.21703c0,6.48301 0.00085,12.96715 0.00199,19.45016c0,4.11429 -6.38821,4.07814 -6.38935,-0.04583c0,-3.90478 -0.00114,-7.80956 -0.00114,-11.7132c-4.58598,4.58513 -9.16998,9.16912 -13.75597,13.75397c-2.91897,2.91783 -7.45173,-1.58303 -4.54129,-4.49347c4.59368,-4.59225 9.1882,-9.18678 13.78159,-13.77931c-3.92186,0 -7.84144,0 -11.7633,0.00114c-4.11458,0 -4.07814,-6.38821 0.04697,-6.38849z"/><path d="M311.40035,211.21602c-6.48301,0 -12.96601,0.00085 -19.45016,0.00199c-1.74786,0 -3.17119,-1.48596 -3.17119,-3.21702c0,-6.48301 0,-12.96715 0,-19.45016c0,-4.11429 6.38935,-4.07814 6.38935,0.04583c0,3.90478 0,7.80956 0,11.71434c4.58485,-4.58485 9.16884,-9.16998 13.75483,-13.75483c2.91897,-2.91783 7.45173,1.58303 4.54129,4.49347c-4.59225,4.59225 -9.18677,9.18678 -13.7793,13.77931c3.92072,0 7.84143,0 11.76329,-0.00114c4.11458,0 4.07842,6.38822 -0.04811,6.38822z"/></g></g></g></svg>